<svg xmlns="http://www.w3.org/2000/svg" width="15.035" height="15.034">
    <g style="opacity:.25">
        <path
                d="m9.174 7.533 5.621-5.622a.824.824 0 0 0 0-1.163L14.3.256a.824.824 0 0 0-1.163 0L7.518 5.877 1.9.256a.824.824 0 0 0-1.163 0L.241.749a.823.823 0 0 0 0 1.163l5.621 5.621-5.621 5.622a.825.825 0 0 0 0 1.163l.493.492a.824.824 0 0 0 1.163 0l5.621-5.621 5.621 5.621a.816.816 0 0 0 .581.24.816.816 0 0 0 .581-.24l.493-.492a.825.825 0 0 0 0-1.163z"
                transform="translate(0 -.016)"
                style="fill:#2e2e2e"
        />
    </g>
</svg>
